<svg width="512" height="512" viewBox="0 0 512 512" fill="none" xmlns="http://www.w3.org/2000/svg">
  <rect width="512" height="512" rx="104" fill="#FFF9EC"/>
  <circle cx="256" cy="256" r="176" stroke="#C0A05F" stroke-width="20"/>
  <path d="M336 196C318.4 175.2 292.4 164.8 260 164.8C214.8 164.8 182.4 188 182.4 238C182.4 287.2 214.8 312.8 260 312.8C292.4 312.8 318.4 302 336 281.2V320.8C317.2 337.2 289.2 345.6 258.8 345.6C193.6 345.6 142 305.2 142 238C142 169.6 194.8 132 258.8 132C289.2 132 317.2 140.4 336 156.8V196Z" fill="#7E642E"/>
</svg>
